<svg xmlns="http://www.w3.org/2000/svg" viewBox="0 0 512 512" fill="#059669">
  <circle cx="256" cy="256" r="256" fill="#059669"/>
  <path fill="white" d="M256 64c-70.7 0-128 57.3-128 128 0 87.8 118.8 192 128 205.7 9.2-13.7 128-117.9 128-205.7 0-70.7-57.3-128-128-128zm0 192c-35.3 0-64-28.7-64-64s28.7-64 64-64 64 28.7 64 64-28.7 64-64 64z"/>
  <path fill="white" d="M150 350h60l20 40h60l20-40h60l-30 60H180l-30-60z"/>
  <text x="256" y="450" text-anchor="middle" fill="white" font-family="Arial, sans-serif" font-size="36" font-weight="bold">MQ</text>
</svg>